<?xml version="1.0" standalone="no"?>
<!DOCTYPE svg PUBLIC "-//W3C//DTD SVG 20010904//EN"
 "http://www.w3.org/TR/2001/REC-SVG-20010904/DTD/svg10.dtd">
<svg version="1.0" xmlns="http://www.w3.org/2000/svg"
 width="512.000000pt" height="512.000000pt" viewBox="0 0 512.000000 512.000000"
 preserveAspectRatio="xMidYMid meet">

<g transform="translate(0.000000,512.000000) scale(0.100000,-0.100000)"
fill="#000000" stroke="none">
<path d="M940 2555 l0 -1625 1625 0 1625 0 0 1625 0 1625 -1625 0 -1625 0 0
-1625z m3158 3 l-3 -1533 -1530 0 -1530 0 -3 1533 -2 1532 1535 0 1535 0 -2
-1532z"/>
<path d="M1670 3048 c0 -13 11 -20 42 -24 81 -13 78 4 78 -418 0 -424 2 -412
-78 -423 -33 -4 -42 -10 -42 -25 0 -20 7 -20 248 -16 225 4 253 6 312 27 203
71 320 228 320 430 0 186 -95 336 -262 414 -89 41 -142 48 -386 50 -214 2
-232 1 -232 -15z m500 -54 c197 -58 305 -264 257 -490 -29 -137 -94 -227 -202
-279 -49 -25 -73 -29 -165 -33 -106 -4 -109 -4 -134 21 l-26 26 0 385 0 385
28 4 c48 9 186 -2 242 -19z"/>
<path d="M2590 3048 c0 -10 10 -20 23 -22 12 -3 34 -7 49 -10 18 -4 29 -16 37
-37 15 -44 15 -704 0 -748 -12 -33 -41 -51 -85 -51 -17 0 -24 -5 -24 -20 0
-19 7 -20 175 -20 168 0 175 1 175 20 0 16 -7 20 -34 20 -19 0 -44 9 -57 19
-23 19 -24 24 -27 205 l-3 186 275 0 276 0 0 -157 c0 -87 -5 -174 -10 -194
-11 -38 -41 -59 -85 -59 -18 0 -25 -5 -25 -20 0 -19 7 -20 170 -20 163 0 170
1 170 20 0 15 -7 20 -25 20 -39 0 -75 21 -83 49 -4 14 -7 189 -7 387 0 339 1
363 19 382 10 12 34 22 55 24 29 2 37 8 39 26 l3 22 -171 0 -171 0 3 -22 c2
-19 11 -24 46 -29 23 -3 48 -11 55 -18 8 -8 12 -60 12 -179 l0 -167 -270 0
-270 0 -3 151 c-3 166 4 201 43 209 14 3 36 7 50 10 15 3 25 12 25 23 0 15
-16 17 -175 17 -159 0 -175 -2 -175 -17z"/>
<path d="M2182 1798 c-2 -66 0 -78 14 -78 12 0 14 3 6 13 -6 7 -13 42 -15 77
l-3 65 -2 -77z"/>
<path d="M2628 1795 c-2 -41 0 -75 5 -75 4 0 7 34 7 75 0 41 -2 75 -4 75 -3 0
-6 -34 -8 -75z"/>
<path d="M2730 1860 c0 -5 5 -10 10 -10 6 0 10 5 10 10 0 6 -4 10 -10 10 -5 0
-10 -4 -10 -10z"/>
<path d="M2291 1794 c0 -11 3 -14 6 -6 3 7 2 16 -1 19 -3 4 -6 -2 -5 -13z"/>
<path d="M2428 1773 c5 -59 10 -63 11 -10 1 26 -3 47 -7 47 -4 0 -6 -17 -4
-37z"/>
<path d="M2488 1773 c5 -59 10 -63 11 -10 1 26 -3 47 -7 47 -4 0 -6 -17 -4
-37z"/>
<path d="M2523 1794 c-3 -8 -2 -19 3 -24 5 -5 9 1 9 16 0 28 -3 30 -12 8z"/>
<path d="M2576 1795 c4 -8 8 -15 10 -15 2 0 4 7 4 15 0 8 -4 15 -10 15 -5 0
-7 -7 -4 -15z"/>
<path d="M2828 1765 c2 -25 7 -45 11 -45 3 0 5 20 3 45 -2 25 -7 45 -11 45 -3
0 -5 -20 -3 -45z"/>
<path d="M2398 1773 c5 -21 7 -23 10 -9 2 10 0 22 -6 28 -6 6 -7 0 -4 -19z"/>
<path d="M2310 1773 c0 -5 5 -15 10 -23 8 -12 10 -11 10 8 0 12 -4 22 -10 22
-5 0 -10 -3 -10 -7z"/>
<path d="M2730 1736 c0 -9 5 -16 10 -16 6 0 10 4 10 9 0 6 -4 13 -10 16 -5 3
-10 -1 -10 -9z"/>
<path d="M2530 1729 c0 -4 16 -9 35 -11 19 -2 35 -1 35 3 0 4 -16 9 -35 11
-19 2 -35 1 -35 -3z"/>
<path d="M2780 1730 c0 -5 5 -10 11 -10 5 0 7 5 4 10 -3 6 -8 10 -11 10 -2 0
-4 -4 -4 -10z"/>
<path d="M2935 1730 c-3 -5 -1 -10 4 -10 6 0 11 5 11 10 0 6 -2 10 -4 10 -3 0
-8 -4 -11 -10z"/>
</g>
</svg>
